HIERARCHY
ROOT SpineBase
{
  OFFSET 0.000000 0.000000 0.000000
  CHANNELS 6 Xposition Yposition Zposition Zrotation Xrotation Yrotation
  JOINT SpineMid
  {
    OFFSET -0.000000 24.631443 0.000000
    CHANNELS 3 Zrotation Xrotation Yrotation
    JOINT SpineShoulder
    {
      OFFSET 0.077012 18.226006 -0.755608
      CHANNELS 3 Zrotation Xrotation Yrotation
      JOINT Neck
      {
        OFFSET 0.022784 6.062911 -0.483142
        CHANNELS 3 Zrotation Xrotation Yrotation
        JOINT Head
        {
          OFFSET 1.945900 10.450431 -2.356491
          CHANNELS 3 Zrotation Xrotation Yrotation
          End Site
          {
            OFFSET 0 0 0
          }
        }
      }
      JOINT ShoulderLeft
      {
        OFFSET -5.632497 -4.016251 -4.006799
        CHANNELS 3 Zrotation Xrotation Yrotation
        JOINT ElbowLeft
        {
          OFFSET 0.072980 -21.837950 -1.499235
          CHANNELS 3 Zrotation Xrotation Yrotation
          JOINT WristLeft
          {
            OFFSET 8.556173 -14.265758 -5.155928
            CHANNELS 3 Zrotation Xrotation Yrotation
            JOINT HandLeft
            {
              OFFSET -1.614232 -5.338420 1.647052
              CHANNELS 3 Zrotation Xrotation Yrotation
              JOINT HandTipLeft
              {
                OFFSET 0.613370 -5.715318 -2.404597
                CHANNELS 3 Zrotation Xrotation Yrotation
                End Site
                {
                  OFFSET 0 0 0
                }
              }
              JOINT ThumbLeft
              {
                OFFSET -2.360170 0.082493 -2.415083
                CHANNELS 3 Zrotation Xrotation Yrotation
                End Site
                {
                  OFFSET 0 0 0
                }
              }
            }
          }
        }
      }
      JOINT ShoulderRight
      {
        OFFSET 11.986635 2.582129 -2.857888
        CHANNELS 3 Zrotation Xrotation Yrotation
        JOINT ElbowRight
        {
          OFFSET -6.594119 -15.258149 -7.235892
          CHANNELS 3 Zrotation Xrotation Yrotation
          JOINT WristRight
          {
            OFFSET 3.975017 -16.758190 -4.053572
            CHANNELS 3 Zrotation Xrotation Yrotation
            JOINT HandRight
            {
              OFFSET 1.311964 -6.689941 -1.678779
              CHANNELS 3 Zrotation Xrotation Yrotation
              JOINT HandTipRight
              {
                OFFSET 1.205348 -3.749778 -0.337073
                CHANNELS 3 Zrotation Xrotation Yrotation
                End Site
                {
                  OFFSET 0 0 0
                }
              }
              JOINT ThumbRight
              {
                OFFSET -1.763060 1.091962 -1.809689
                CHANNELS 3 Zrotation Xrotation Yrotation
                End Site
                {
                  OFFSET 0 0 0
                }
              }
            }
          }
        }
      }
    }
  }
  JOINT HipLeft
  {
    OFFSET -4.887696 2.867775 -4.111402
    CHANNELS 3 Zrotation Xrotation Yrotation
    JOINT KneeLeft
    {
      OFFSET 11.881688 -33.789316 1.391334
      CHANNELS 3 Zrotation Xrotation Yrotation
      JOINT AnkleLeft
      {
        OFFSET 11.777119 -48.402644 7.607711
        CHANNELS 3 Zrotation Xrotation Yrotation
        JOINT FootLeft
        {
          OFFSET 4.496532 -5.038107 -4.744218
          CHANNELS 3 Zrotation Xrotation Yrotation
          End Site
          {
            OFFSET 0 0 0
          }
        }
      }
    }
  }
  JOINT HipRight
  {
    OFFSET 3.828690 0.559122 -2.285829
    CHANNELS 3 Zrotation Xrotation Yrotation
    JOINT KneeRight
    {
      OFFSET 6.358004 -35.341102 0.782052
      CHANNELS 3 Zrotation Xrotation Yrotation
      JOINT AnkleRight
      {
        OFFSET 16.220166 -41.281159 6.750037
        CHANNELS 3 Zrotation Xrotation Yrotation
        JOINT FootRight
        {
          OFFSET 10.323449 1.303803 0.533421
          CHANNELS 3 Zrotation Xrotation Yrotation
          End Site
          {
            OFFSET 0 0 0
          }
        }
      }
    }
  }
}
MOTION
Frames: 13
Frame Time: 0.033333
52.648583 188.391151 334.217341 0.000000 0.000000 -11.829125 -0.000000 0.000000 11.829125 -0.000000 0.000000 0.000000 -0.000000 0.000000 0.000000 0.000000 0.000000 0.000000 -0.000000 0.000000 0.000000 -0.000000 0.000000 0.000000 -0.000000 0.000000 0.000000 -0.000000 0.000000 0.000000 0.000000 0.000000 0.000000 0.000000 0.000000 0.000000 -0.000000 0.000000 0.000000 -0.000000 0.000000 0.000000 -0.000000 0.000000 0.000000 -0.000000 0.000000 0.000000 0.000000 0.000000 0.000000 0.000000 0.000000 0.000000 -0.000000 0.000000 11.829125 -0.000000 0.000000 0.000000 -0.000000 0.000000 0.000000 0.000000 0.000000 0.000000 -0.000000 0.000000 11.829125 -0.000000 0.000000 0.000000 -0.000000 0.000000 0.000000 0.000000 0.000000 0.000000
52.529354 189.253857 334.019989 -0.375184 -0.094068 -2.416643 0.370885 0.109803 2.415979 -0.000000 0.000000 0.000000 0.581981 2.224320 -0.295866 0.000000 0.000000 0.000000 -1.234266 0.542880 0.092374 -1.247544 -2.298132 -0.304417 6.865582 5.929859 -0.076153 -4.396836 -4.153882 -0.254344 0.000000 0.000000 0.000000 0.000000 0.000000 0.000000 -0.000000 0.000000 0.000000 -0.000000 0.000000 0.000000 -0.000000 0.000000 0.000000 -0.000000 0.000000 0.000000 0.000000 0.000000 0.000000 0.000000 0.000000 0.000000 0.370885 0.109803 2.415979 -0.000000 0.000000 0.000000 -1.391524 -0.377394 0.982680 0.000000 0.000000 0.000000 0.023963 -0.982620 2.210833 0.388872 1.078206 0.198845 1.975628 -0.226473 1.146110 0.000000 0.000000 0.000000
52.477378 189.854437 333.829248 -0.601269 -0.138192 1.461036 0.604599 0.122809 -1.462409 -0.000000 0.000000 0.000000 1.178611 4.408103 -0.607219 0.000000 0.000000 0.000000 -2.219192 0.979005 0.174516 -2.588793 -4.299631 -0.637731 13.343328 11.533566 -0.852123 -9.146597 -9.763719 -0.749661 0.000000 0.000000 0.000000 0.000000 0.000000 0.000000 -0.000000 0.000000 0.000000 -0.000000 0.000000 0.000000 -0.000000 0.000000 0.000000 -0.000000 0.000000 0.000000 0.000000 0.000000 0.000000 0.000000 0.000000 0.000000 0.639834 0.966580 -1.165175 -0.018072 -0.844312 -0.297703 -2.741033 -0.812127 1.890171 0.000000 0.000000 0.000000 -0.158021 -1.565049 -1.795268 0.709690 1.710792 0.312664 3.563039 -0.386228 2.142323 0.000000 0.000000 0.000000
52.492653 190.192893 333.645117 -0.667576 -0.129482 0.412028 0.668492 0.124669 -0.413510 -0.000000 0.000000 0.000000 1.786201 6.532113 -0.931417 0.000000 0.000000 0.000000 -2.909142 1.289863 0.236665 -4.107803 -6.017420 -0.974767 19.818747 17.003582 -2.312261 -13.576773 -15.052882 -1.608598 0.000000 0.000000 0.000000 0.000000 0.000000 0.000000 -0.000000 0.000000 0.000000 -0.000000 0.000000 0.000000 -0.000000 0.000000 0.000000 -0.000000 0.000000 0.000000 0.000000 0.000000 0.000000 0.000000 0.000000 0.000000 0.668492 0.124669 -0.413510 -0.000000 0.000000 0.000000 -4.050250 -1.301465 2.722486 0.000000 0.000000 0.000000 -0.322219 -1.759335 -0.789954 0.965173 1.897228 0.346328 4.718975 -0.492995 2.963823 0.000000 0.000000 0.000000
52.575181 190.269223 333.467597 -0.569955 -0.067230 -5.205017 0.561507 0.118655 5.204101 -0.000000 0.000000 0.000000 2.400549 8.577934 -1.265182 0.000000 0.000000 0.000000 -3.270042 1.461763 0.270959 -5.871620 -7.465945 -1.293844 26.748487 22.571595 -4.605065 -18.363217 -20.958425 -2.911671 0.000000 0.000000 0.000000 0.000000 0.000000 0.000000 -0.000000 0.000000 0.000000 -0.000000 0.000000 0.000000 -0.000000 0.000000 0.000000 -0.000000 0.000000 0.000000 0.000000 0.000000 0.000000 0.000000 0.000000 0.000000 0.561507 0.118655 5.204101 -0.000000 0.000000 0.000000 -5.321318 -1.843106 3.479757 0.000000 0.000000 0.000000 -0.450980 -1.611068 4.871222 1.156164 1.637213 0.303171 5.411206 -0.559532 3.591663 0.000000 0.000000 0.000000
52.724961 190.083428 333.296687 -0.311250 0.046986 -15.079992 0.312756 0.035610 15.080022 -0.000000 0.000000 0.000000 3.017014 10.528518 -1.604656 0.000000 0.000000 0.000000 -3.282757 1.486877 0.272793 -7.928975 -8.663380 -1.575340 34.816885 28.508345 -8.144357 -24.070538 -27.835459 -4.963805 0.000000 0.000000 0.000000 0.000000 0.000000 0.000000 -0.000000 0.000000 0.000000 -0.000000 0.000000 0.000000 -0.000000 0.000000 0.000000 -0.000000 0.000000 0.000000 0.000000 0.000000 0.000000 0.000000 0.000000 0.000000 0.515229 -0.739612 14.799348 0.002256 0.801222 0.281902 -6.556735 -2.435181 4.162143 0.000000 0.000000 0.000000 -0.686905 -1.192622 14.874547 1.281610 0.930245 0.184976 5.617679 -0.595725 4.012180 0.000000 0.000000 0.000000
52.988876 189.557231 333.100202 0.229775 0.242386 -30.620138 -0.074280 -0.325621 30.619441 -0.000000 0.000000 0.000000 3.878400 13.026215 -2.070222 0.000000 0.000000 0.000000 -2.865318 1.717743 0.245225 -12.325667 -11.198903 -2.348386 56.604574 38.874090 -19.363115 -40.591322 -38.693218 -12.957849 0.000000 0.000000 0.000000 0.000000 0.000000 0.000000 -0.000000 0.000000 0.000000 -0.000000 0.000000 0.000000 -0.000000 0.000000 0.000000 -0.000000 0.000000 0.000000 0.000000 0.000000 0.000000 0.000000 0.000000 0.000000 1.030847 -2.480514 29.790742 0.803406 1.460394 0.701153 -9.394094 -2.154313 6.056384 0.000000 0.000000 0.000000 -1.451467 -0.728971 30.639787 1.390399 -0.354938 -0.028714 7.625942 -0.677954 4.867919 0.000000 0.000000 0.000000
53.290754 188.783844 332.916311 0.785424 0.430935 -44.701181 -0.255187 -0.858760 44.696314 -0.000000 0.000000 0.000000 4.977729 15.266533 -2.499376 0.000000 0.000000 0.000000 -3.370291 1.262315 0.272624 -13.685538 -11.690196 -2.551596 77.575734 43.087946 -31.403321 -61.067593 -48.348919 -26.219528 0.000000 0.000000 0.000000 0.000000 0.000000 0.000000 -0.000000 0.000000 0.000000 -0.000000 0.000000 0.000000 -0.000000 0.000000 0.000000 -0.000000 0.000000 0.000000 0.000000 0.000000 0.000000 0.000000 0.000000 0.000000 2.803282 -4.039906 43.274901 0.531996 2.378521 1.105957 -10.304596 -5.259483 3.369400 0.000000 0.000000 0.000000 -2.692725 -0.378328 45.009843 0.998884 -1.138938 -0.026168 7.988809 -1.655827 5.078063 0.000000 0.000000 0.000000
53.608794 187.858383 332.798343 1.370271 0.660804 -55.046841 -0.668825 -0.487047 55.048812 0.495622 -0.827701 0.077380 4.641320 16.395934 -2.830171 0.000000 0.000000 0.000000 -3.385190 0.442085 0.079767 -15.370671 -11.024551 -2.107197 93.503162 45.964190 -44.795814 -79.795622 -55.624527 -40.724130 0.000000 0.000000 0.000000 0.000000 0.000000 0.000000 -1.083753 -0.100639 -0.086929 -0.000000 0.000000 0.000000 -0.000000 0.000000 0.000000 -0.000000 0.000000 0.000000 0.000000 0.000000 0.000000 0.000000 0.000000 0.000000 4.894047 -5.218960 53.107779 0.196046 3.493357 1.551361 -10.141513 -4.513884 3.936028 0.000000 0.000000 0.000000 -4.246649 -0.330407 55.655075 1.238979 -2.512406 -0.080746 5.853075 -2.163301 4.434352 0.000000 0.000000 0.000000
53.897485 186.947607 332.867055 1.920202 0.843325 -61.643172 -0.723462 -0.671681 61.648557 0.494321 -0.877348 0.097287 4.067500 16.128065 -2.839760 0.000000 0.000000 0.000000 -1.480557 -0.280603 -0.120531 -18.450688 -10.202736 -1.229782 113.231200 47.942468 -66.222518 -114.003128 -64.785972 -73.063604 0.000000 0.000000 0.000000 0.000000 0.000000 0.000000 -1.480557 -0.280603 -0.120531 -0.000000 0.000000 0.000000 -0.000000 0.000000 0.000000 -0.000000 0.000000 0.000000 0.000000 0.000000 0.000000 0.000000 0.000000 0.000000 6.730553 -6.006789 59.324345 -0.325875 4.480688 1.939001 -8.679692 -0.406942 6.894741 0.000000 0.000000 0.000000 -5.782180 -0.379999 62.516848 1.450110 -3.822829 -0.102140 4.191304 -2.397434 1.163266 0.000000 0.000000 0.000000
54.097949 186.079713 332.182553 2.401923 1.001668 -66.007415 -0.729946 -0.712333 66.020172 0.474452 -0.874508 0.117850 2.437935 15.632996 -2.897602 0.000000 0.000000 0.000000 0.388519 -0.380126 -0.301264 -20.717171 -9.240237 -0.129846 121.683671 50.752568 -84.273154 -151.363815 -70.240062 -114.790076 0.000000 0.000000 0.000000 0.000000 0.000000 0.000000 -1.930367 -0.499337 -0.160312 -0.000000 0.000000 0.000000 -0.000000 0.000000 0.000000 -0.000000 0.000000 0.000000 0.000000 0.000000 0.000000 0.000000 0.000000 0.000000 8.868492 -6.759746 63.255580 -1.171683 5.951246 2.515860 -8.168967 5.852081 12.921737 0.000000 0.000000 0.000000 -7.524206 -0.500194 67.143250 2.442982 -5.253465 0.072577 -7.500189 -2.074917 -0.956901 0.000000 0.000000 0.000000
54.391752 185.673016 332.460331 2.699464 1.230968 -68.552637 -0.715433 -0.586314 68.572025 0.405633 -0.760334 0.129647 1.044525 15.626772 -3.101927 0.000000 0.000000 0.000000 0.995773 -0.693718 -0.377377 -22.928652 -9.312330 0.350580 135.020061 47.881803 -99.564310 -177.449320 -64.310843 -141.002643 0.000000 0.000000 0.000000 0.000000 0.000000 0.000000 -2.300918 -0.915029 -0.198177 -0.000000 0.000000 0.000000 -0.000000 0.000000 0.000000 -0.000000 0.000000 0.000000 0.000000 0.000000 0.000000 0.000000 0.000000 0.000000 10.480448 -7.231448 65.524912 -2.337823 7.151433 3.001967 -5.696619 12.861843 17.182823 0.000000 0.000000 0.000000 -8.595968 -0.680180 69.847636 2.975722 -6.322417 0.151020 -17.726187 -1.592925 -1.249406 0.000000 0.000000 0.000000
53.243283 193.615259 332.805307 2.989986 1.245143 -70.736286 -0.680695 -0.296640 70.777853 0.355835 -0.591211 0.146859 -0.279801 16.269355 -3.429626 0.000000 0.000000 0.000000 2.257727 -1.459753 -0.485132 -24.978013 -9.528934 0.197692 97.649257 53.082731 -61.251261 -94.366135 -79.222450 -65.316877 0.000000 0.000000 0.000000 0.000000 0.000000 0.000000 -2.846240 -1.187880 -0.251674 -0.000000 0.000000 0.000000 -0.000000 0.000000 0.000000 1.430915 -1.137112 -0.478468 0.000000 0.000000 0.000000 0.000000 0.000000 0.000000 11.361763 -8.184540 67.508732 -3.099020 8.706450 3.561403 -4.191558 22.712921 24.493024 0.000000 0.000000 0.000000 -10.636710 -0.987590 72.259691 2.928571 -8.227498 -0.164242 -32.448587 -1.412769 0.828854 0.000000 0.000000 0.000000
